<?xml version="1.0" encoding="utf-8"?>
<!-- Generator: Adobe Illustrator 19.0.0, SVG Export Plug-In . SVG Version: 6.00 Build 0)  -->
<svg version="1.1" id="Layer_1" xmlns="http://www.w3.org/2000/svg" xmlns:xlink="http://www.w3.org/1999/xlink" x="0px" y="0px"
	 viewBox="-283 360.5 45 58" style="enable-background:new -283 360.5 45 58;" xml:space="preserve">
<g>
	<path d="M-238.6,372.7l-0.8-0.8l0,0l-10.1-10.1l0,0l-0.8-0.8c-0.4-0.3-0.8-0.5-1.3-0.5h-29c-1.2,0-2.5,0.9-2.5,2.9v36.1V416v0.5
		c0,0.8,0.8,1.6,1.8,1.9c0.1,0,0.1,0,0.1,0c0.2,0,0.3,0,0.5,0h40.1c0.2,0,0.3,0,0.5,0c0.1,0,0.1,0,0.2,0c1-0.3,1.8-1.1,1.8-1.9V416
		v-16.5v-25C-238,373.7-238.1,373.1-238.6,372.7z M-250,364.1l8.4,8.4h-8.4V364.1z M-280.5,416.5c-0.1,0-0.1,0-0.2,0
		c-0.2-0.1-0.3-0.2-0.3-0.4v-14.5h41V416c0,0.2-0.1,0.3-0.3,0.4c-0.1,0-0.1,0-0.2,0H-280.5z M-281,399.5v-36.1c0-0.2,0-0.9,0.5-0.9
		l28.6,0c0,0.1-0.1,0.3-0.1,0.4v11.6h11.6c0.1,0,0.3,0,0.4-0.1c0,0,0,0,0,0v25H-281z"/>
	<polygon points="-269.9,405.8 -264.9,405.8 -265.1,406 -269.9,413.2 -269.9,414.5 -263.2,414.5 -263.2,413.2 -268.3,413.2 
		-268,413 -263.2,405.8 -263.2,404.4 -269.9,404.4 	"/>
	<rect x="-260.9" y="404.4" width="1.7" height="10.1"/>
	<path d="M-251.4,405.2c-0.3-0.3-0.7-0.5-1.1-0.6c-0.4-0.1-0.8-0.2-1.3-0.2h-2.9v10.1h1.6v-3.6h1.2c0.5,0,1-0.1,1.4-0.2
		s0.8-0.4,1.1-0.7c0.3-0.3,0.6-0.6,0.7-1c0.2-0.4,0.3-0.9,0.3-1.4c0-0.5-0.1-0.9-0.3-1.3C-250.8,405.8-251.1,405.5-251.4,405.2z
		 M-252.1,408.6c-0.1,0.3-0.2,0.5-0.4,0.6s-0.3,0.3-0.5,0.3c-0.2,0.1-0.4,0.1-0.6,0.1h-1.5v-4h1.2c0.4,0,0.8,0.1,1,0.2
		c0.2,0.1,0.4,0.3,0.6,0.5c0.1,0.2,0.2,0.4,0.3,0.6c0.1,0.2,0.1,0.4,0.1,0.6C-251.9,408-251.9,408.3-252.1,408.6z"/>
	<path d="M-260,383.5h2v-2h-2v-2h2v-2h-2v-2h2v-2h-2v-2h2v-2h-2v-2h-2v2h-2v2h2v2h-2v2h2v2h-2v2h2v2h-2v2h2v2h-4v5c0,2.8,2.2,5,5,5
		s5-2.2,5-5v-5h-4V383.5z M-258,390.5c0,1.6-1.4,3-3,3s-3-1.4-3-3v-3h6V390.5z"/>
	<path d="M-262,391.5h2c0.5,0,1-0.5,1-1s-0.5-1-1-1h-2c-0.5,0-1,0.5-1,1S-262.5,391.5-262,391.5z"/>
</g>
</svg>
